<svg width="131" height="40" viewBox="0 0 131 40" xmlns="http://www.w3.org/2000/svg">
    <g fill="none" fill-rule="evenodd">
        <path d="M121.864 21.584 2.882 21.582c-.05-5.646 1.634-10.367 4.904-13.698 3.182-3.24 7.732-5.026 12.812-5.026 5.124 0 9.548 1.808 12.792 5.228 2.719 2.866 4.4 6.637 4.846 10.706h2.943c-.462-4.79-2.421-9.257-5.637-12.647C31.728 2.125 26.56 0 20.598 0 14.71 0 9.408 2.097 5.669 5.907 2.247 9.393.32 14.114 0 19.677c0 .217 0 .98.062 1.905H.06l.007.082c.024.335.055.689.097 1.045h.017c.079.584.179 1.16.308 1.728l120.614.029 1.933-1.418-1.172-1.464z" fill="#C8102E"/>
        <path d="M31.655 36.893C28.439 38.856 24.615 40 20.505 40c-4.108 0-7.932-1.144-11.148-3.107zm5.574-5.048a20.2 20.2 0 0 1-2.493 2.718H6.475c-.914-.83-1.75-1.74-2.493-2.718zm2.788-5.049c-.353.94-.776 1.85-1.267 2.719H2.46a19.315 19.315 0 0 1-1.265-2.719zM125.824 4.66l-3.41 14.16h-3.585l.203-.84c-.48.704-1.45 1.05-2.15 1.05-3.5 0-4.476-2.733-3.797-5.736.615-2.523 2.015-5.317 5.09-5.317 1.188 0 1.976.306 3.016 1.036l1.053-4.353h3.58zM98.733 7.961c1.365 0 2.107.606 2.62 1.462l.3-1.253h3.466l-2.576 10.65h-3.465l.227-.94c-.981.734-1.418 1.15-2.705 1.15-3.542 0-4.502-2.736-3.82-5.744.62-2.485 2.24-5.325 5.953-5.325zm-36.431 0c4.789 0 5.17 3.3 4.577 5.743-.614 2.59-2.098 5.325-6.548 5.325-4.811 0-5.15-3.258-4.578-5.743.615-2.526 2.12-5.325 6.549-5.325zm-3.77-2.912-.708 2.973h-6.779l-.796 3.54h4.87l-.745 3.058h-4.862l-1.048 4.215h-4.266l3.31-13.786h11.024zm22.817 3.3-.636 6.374L83.49 8.35h3.793l-.17 6.681L89.74 8.35h4.429l-5.552 10.485h-4.28l.19-6.579-2.945 6.579h-4.11L77.046 8.35h4.302zm-8.514 0-.423 1.743c1.01-1.465 2.71-1.742 4.237-1.742l-1.01 3.185c-2.05-.632-3.7.495-4.058 1.934l-1.308 5.366h-3.578L69.24 8.35h3.594zm41.243-.194-1.19 3.332c-2.055-.636-3.708.498-4.067 1.947l-1.31 5.401h-3.587l2.552-10.554h3.601l-.424 1.753c1.012-1.474 2.894-1.879 4.425-1.879zm-52.055 3.001c-1.486 0-2.276.573-2.718 2.335-.418 1.831.21 2.426 1.278 2.426 1.51 0 2.323-.595 2.764-2.426.419-1.762-.162-2.335-1.324-2.335zm57.17.011c-1.166 0-1.697.626-2.12 2.21-.276.94-.382 2.524 1.102 2.524 1.676 0 2.227-2.085 2.227-3.524 0-.772-.403-1.21-1.209-1.21zm-20.268-.01c-1.173 0-1.685.647-2.112 2.234-.277.94-.405 2.464 1.088 2.464 1.173 0 1.664-.668 2.09-2.255.384-1.462.235-2.444-1.066-2.444zm28.98-6.497c.451 0 .678.2.683.601h-.278c-.015-.25-.135-.355-.415-.355-.242 0-.354.072-.354.222 0 .166.14.197.456.278.41.104.614.184.614.486 0 .326-.237.516-.68.516-.456 0-.711-.206-.714-.63h.28c.013.253.154.376.457.376.25 0 .382-.08.382-.243 0-.177-.153-.206-.436-.275-.43-.107-.634-.196-.634-.497 0-.324.237-.479.64-.479zm1.532 0 .487 1.19c.03.072.053.151.08.228 0-.009.05-.159.078-.227l.488-1.19h.43v1.747h-.288V5.023l-.564 1.385h-.289l-.564-1.385v1.385h-.286V4.66h.428z" fill="#101010"/>
    </g>
</svg>
